PathFileType	4	(X/Y/Z)	TVC_9_BWA1_walk_RCNL2025.trc
DataRate	CameraRate	NumFrames	NumMarkers	Units	OrigDataRate	OrigDataStartFrame	OrigNumFrames
100	100	12	27	mm	100	249	397
Frame#	Time	R_Shoulder			L_Shoulder			C7			J_Notch			R_Elbow			L_Elbow			R_Wrist			L_Wrist			R_Asis			L_Asis			R_Psis			L_Psis			Sacral			Thoracic			Sternum			R_Thigh_Lateral			R_Knee_Lateral			R_Shank_Lateral			R_Ankle_Lateral			R_Heel			R_Toe			L_Thigh_Lateral			L_Knee_Lateral			L_Shank_Lateral			L_Ankle_Lateral			L_Heel			L_Toe		
		X1	Y1	Z1	X2	Y2	Z2	X3	Y3	Z3	X4	Y4	Z4	X5	Y5	Z5	X6	Y6	Z6	X7	Y7	Z7	X8	Y8	Z8	X9	Y9	Z9	X10	Y10	Z10	X11	Y11	Z11	X12	Y12	Z12	X13	Y13	Z13	X14	Y14	Z14	X15	Y15	Z15	X16	Y16	Z16	X17	Y17	Z17	X18	Y18	Z18	X19	Y19	Z19	X20	Y20	Z20	X21	Y21	Z21	X22	Y22	Z22	X23	Y23	Z23	X24	Y24	Z24	X25	Y25	Z25	X26	Y26	Z26	X27	Y27	Z27
249	2.48000000	601.982056	1361.946899	-118.629677	544.917725	1392.598877	-504.460999	524.481506	1441.944824	-310.383514	680.396851	1344.754150	-316.421478	596.509399	1037.675293	-12.949510	503.510468	1058.206055	-596.368408	730.482391	826.496704	-35.285792	614.455475	841.810333	-634.028015	638.828125	933.450256	-164.449188	614.164551	938.568237	-470.123566	437.948334	954.146912	-250.432571	431.227997	948.254272	-348.982971	434.588165	951.200592	-299.707771	436.305084	1164.052246	-304.330139	741.772522	1157.271606	-326.289795	615.797546	532.150818	-105.124397	607.791992	450.702820	-177.808197	600.917114	289.842468	-140.791428	562.471252	68.963242	-217.626465	509.512451	57.099834	-282.515259	690.794922	47.544449	-249.235443	735.733032	600.163147	-512.387939	733.097351	473.764282	-459.095398	653.885254	359.608429	-504.302277	503.599854	194.228302	-427.465546	447.613708	201.638489	-368.212189	601.085999	85.842186	-401.068756
250	2.49000000	610.918823	1363.316528	-119.500404	553.453552	1392.534180	-505.127197	533.236633	1442.281128	-311.307343	689.031982	1344.976685	-317.265564	610.324951	1040.347046	-10.787617	508.415924	1057.681274	-593.407471	752.428650	834.583710	-33.962344	612.745056	837.636658	-629.396667	646.732178	933.826416	-163.614899	622.726013	938.551270	-469.602356	446.116180	954.680908	-250.064850	439.681702	948.577698	-348.682800	442.898941	951.629303	-299.373825	444.796204	1164.450317	-304.071045	750.173035	1157.425171	-326.833038	618.375549	532.075378	-104.739433	609.617310	450.692413	-177.584717	601.810730	289.887024	-140.522217	562.526733	69.019524	-217.655136	509.641541	57.286339	-282.604889	690.823608	47.410915	-249.101349	749.181519	603.379395	-511.682129	749.403320	476.656830	-458.840424	675.705017	358.316071	-504.493042	533.032837	186.045410	-428.112183	476.534119	189.807922	-368.635681	636.874023	83.918716	-402.774139
251	2.50000000	619.798950	1364.623413	-120.401192	561.973633	1392.356079	-505.813690	541.946106	1442.460083	-312.266968	697.666626	1345.098389	-318.117859	624.061096	1043.127441	-8.556627	513.336670	1057.144165	-590.492676	774.013489	843.068146	-32.714939	611.037506	833.663055	-624.654449	654.669373	934.075256	-162.859436	631.343628	938.353455	-469.110474	454.293457	955.118958	-249.777115	448.155243	948.794983	-348.451813	451.224350	951.956970	-299.114464	453.305206	1164.700073	-303.888428	758.610352	1157.483643	-327.308441	620.925537	532.000122	-104.382942	611.443909	450.676331	-177.375870	602.686951	289.951996	-140.246582	562.593323	69.080261	-217.680954	509.793274	57.485500	-282.684540	690.880371	47.255856	-248.978027	762.049438	606.268433	-511.063599	764.863831	479.160034	-458.716736	696.962524	356.832947	-504.833282	563.039551	177.483795	-428.856659	506.359589	177.500992	-369.132416	672.973877	82.068192	-404.670990
252	2.51000000	628.613403	1365.830933	-121.324394	570.503296	1392.037842	-506.528473	550.625916	1442.470825	-313.260712	706.307861	1345.097412	-318.967712	637.733276	1045.977051	-6.271277	518.254028	1056.572021	-587.648010	795.197235	851.861420	-31.550834	609.375153	829.894073	-619.827240	662.637451	934.177979	-162.175705	640.016907	937.962036	-468.651917	462.478577	955.441223	-249.578094	456.650604	948.884521	-348.286621	459.564590	952.162872	-298.932358	461.833466	1164.787964	-303.800995	767.093323	1157.425781	-327.694092	623.470459	531.918762	-104.048874	613.302429	450.648102	-177.175735	603.564331	290.029755	-139.965256	562.671448	69.146072	-217.704681	509.965088	57.699490	-282.751373	690.962708	47.080677	-248.866913	774.322388	608.765381	-510.555603	779.471680	481.209412	-458.728729	717.601624	355.207764	-505.341309	593.542175	168.753479	-429.746033	536.997559	164.959381	-369.768646	709.235474	80.468269	-406.770782
253	2.52000000	637.357361	1366.908325	-122.265976	579.070923	1391.556152	-507.282104	559.294128	1442.309082	-314.288696	714.962830	1344.954956	-319.808044	651.353027	1048.861206	-3.951076	523.157654	1055.946167	-584.897766	815.944916	860.875153	-30.476399	607.805786	826.331268	-614.945648	670.631470	934.124451	-161.554459	648.748535	937.370972	-468.230530	470.670532	955.630066	-249.473831	465.169312	948.826721	-348.186401	467.919922	952.228394	-298.830116	470.381287	1164.705688	-303.826233	775.628296	1157.234009	-327.975311	626.033325	531.824646	-103.733856	615.219116	450.602173	-176.981918	604.460266	290.112335	-139.680283	562.760193	69.218185	-217.727951	510.152466	57.930504	-282.805237	691.064819	46.888508	-248.768204	785.988831	610.806519	-510.177521	793.236816	482.757843	-458.872650	737.611633	353.474213	-506.028351	624.452881	160.059067	-430.834534	568.325378	152.422028	-370.628693	745.504211	79.276947	-409.063568
254	2.53000000	646.030945	1367.831299	-123.225304	587.705322	1390.893066	-508.086487	567.968628	1441.976562	-315.353333	723.638123	1344.656982	-320.635406	664.926697	1051.750122	-1.619486	528.044373	1055.252808	-582.263733	836.226471	870.023621	-29.496424	606.381775	822.974670	-610.045288	678.645142	933.913696	-160.986313	657.545593	936.581360	-467.850281	478.869873	955.670837	-249.468277	473.712402	948.605164	-348.152985	476.291138	952.138000	-298.810631	478.947906	1164.451172	-303.979126	784.218079	1156.894653	-328.145721	628.641052	531.711304	-103.437927	617.216858	450.534698	-176.795853	605.392029	290.191895	-139.395020	562.857971	69.298615	-217.753021	510.349426	58.181068	-282.848236	691.178833	46.684086	-248.680573	797.037781	612.329224	-509.944214	806.186401	483.779388	-459.136322	757.026550	351.659424	-506.896942	655.668396	151.595016	-432.177551	600.189148	140.119843	-371.805023	781.615479	78.624619	-411.518829
255	2.54000000	654.638184	1368.582764	-124.204430	596.431824	1390.037964	-508.953339	576.664551	1441.480225	-316.459412	732.338440	1344.194336	-321.449890	678.454285	1054.618896	0.697086	532.916748	1054.484741	-579.764221	856.016998	879.225647	-28.613580	605.158173	819.823517	-605.166321	686.672302	933.552795	-160.463776	666.418701	935.600708	-467.515442	487.079132	955.552307	-249.564346	482.280670	948.208130	-348.190552	484.679901	951.880219	-298.877449	487.532043	1164.026978	-304.271027	792.861450	1156.399414	-328.207550	631.326355	531.573364	-103.164612	619.315979	450.443787	-176.622482	606.377380	290.261597	-139.114014	562.963196	69.390373	-217.782288	510.549622	58.454502	-282.883820	691.296204	46.473114	-248.601425	807.458435	613.274414	-509.866028	818.364380	484.271362	-459.500427	775.916321	349.791809	-507.940186	687.063782	143.540634	-433.823669	632.404114	128.269623	-373.384430	817.390869	78.607262	-414.090179
256	2.55000000	663.186646	1369.152222	-125.207108	605.269470	1388.988525	-509.892761	585.393066	1440.830688	-317.613892	741.066284	1343.564209	-322.254578	691.929382	1057.445923	2.970361	537.782837	1053.641357	-577.413452	875.296600	888.405670	-27.828141	604.190582	816.876740	-600.352234	694.707458	933.055359	-159.982788	675.380310	934.442993	-467.230652	495.303040	955.267029	-249.765137	490.875183	947.629761	-348.305298	493.089111	951.448395	-299.035217	496.132019	1163.440552	-304.709137	801.553284	1155.745239	-328.171143	634.127136	531.406921	-102.920471	621.535828	450.329712	-176.469482	607.434082	290.316986	-138.842117	563.074951	69.497818	-217.817795	510.747528	58.755455	-282.916138	691.409485	46.261272	-248.527359	817.242920	613.590881	-509.949402	829.829529	484.255219	-459.941559	794.371460	347.906219	-509.142181	718.485779	136.054184	-435.806213	664.755676	117.067398	-375.432129	852.635437	79.280907	-416.722900
257	2.56000000	671.686584	1369.536133	-126.237671	614.228210	1387.751587	-510.911865	594.160095	1440.041504	-318.825104	749.821716	1342.770142	-323.055145	705.339233	1060.213013	5.171211	542.656311	1052.728516	-575.223022	894.050110	897.494507	-27.137995	603.532593	814.132812	-595.648315	702.746460	932.439331	-159.543747	684.442261	933.127502	-467.001190	503.548401	954.811646	-250.074646	499.497955	946.870728	-348.505035	501.523178	950.841187	-299.289841	504.746094	1162.703247	-305.296387	810.285522	1154.936035	-328.053986	637.083679	531.209900	-102.713989	623.895996	450.194336	-176.345795	608.579224	290.357300	-138.583496	563.193726	69.626892	-217.860748	510.939423	59.090500	-282.949158	691.513000	46.053223	-248.454575	826.392395	613.241638	-510.197723	840.652405	483.775055	-460.436493	812.482300	346.045044	-510.479889	749.747253	129.266388	-438.135620	697.002380	106.681114	-377.977631	887.136230	80.657822	-419.362671
258	2.57000000	680.149719	1369.736938	-127.300018	623.307556	1386.343506	-512.013794	602.966125	1439.128418	-320.101410	758.602478	1341.822510	-323.859039	718.665771	1062.903931	7.270585	547.557495	1051.757690	-573.203186	912.266357	906.429047	-26.538933	603.233521	811.589661	-591.099579	710.786499	931.724915	-159.151520	693.613281	931.677856	-466.833008	511.823669	954.187561	-250.498184	508.152771	945.938416	-348.798981	509.988220	950.062988	-299.648582	513.372864	1161.829590	-306.031738	819.048767	1153.982788	-327.879181	640.234436	530.982727	-102.554169	626.417358	450.041016	-176.259995	609.828003	290.386475	-138.340271	563.321289	69.785271	-217.911072	511.124115	59.468632	-282.985992	691.603760	45.851974	-248.379318	834.924683	612.211304	-510.611664	850.911743	482.893982	-460.966431	830.315918	344.254578	-511.925781	780.624207	123.273575	-440.794250	728.879639	97.243530	-381.004242	920.663879	82.704674	-421.963440
259	2.58000000	688.588135	1369.762573	-128.396988	632.495850	1384.789673	-513.197144	611.806519	1438.108521	-321.449707	767.404663	1340.738159	-324.674896	731.886353	1065.504272	9.240328	552.513916	1050.744873	-571.364990	929.937683	915.152222	-26.025126	603.336975	809.243805	-586.749512	718.826050	930.932983	-158.814575	702.897217	930.120789	-466.733093	520.138245	953.401428	-251.042328	516.845947	944.846558	-349.197388	518.492096	949.123993	-300.119858	522.011658	1160.836792	-306.910950	827.833435	1152.903809	-327.673645	643.610596	530.728394	-102.448936	629.122253	449.874237	-176.218414	611.192810	290.412994	-138.111847	563.460999	69.982285	-217.967133	511.303131	59.901550	-283.028290	691.681030	45.658817	-248.298050	842.881836	610.512939	-511.189270	860.690979	481.688080	-461.519897	847.895325	342.578217	-513.450623	810.856812	118.131592	-443.734894	760.105225	88.845604	-384.445435	952.976135	85.343140	-424.493378
260	2.59000000	697.013306	1369.626099	-129.530090	641.771545	1383.123047	-514.456116	620.672302	1436.999878	-322.873901	776.223267	1339.539795	-325.511902	744.974976	1068.000977	11.053926	557.560730	1049.708008	-569.721375	947.059052	923.612457	-25.589744	603.879578	807.090302	-582.638733	726.864624	930.083862	-158.543579	712.292542	928.484436	-466.709473	528.501770	952.465149	-251.714600	525.586670	943.614319	-349.711487	527.044220	948.039734	-300.713043	530.663147	1159.743530	-307.927399	836.631592	1151.724121	-327.466614	647.232666	530.452942	-102.403694	632.032593	449.699768	-176.223434	612.682983	290.449310	-137.894745	563.616699	70.228653	-218.025635	511.480316	60.403584	-283.075562	691.746033	45.473850	-248.207581	850.335449	608.193420	-511.924561	870.074341	480.238647	-462.093750	865.185059	341.047516	-515.025940	840.156067	113.851028	-446.883179	790.385986	81.531303	-388.188324	983.824951	88.453041	-426.936829
